<svg width="623" height="339" viewBox="0 0 623 339" fill="none" xmlns="http://www.w3.org/2000/svg">
<path d="M230.103 112.442L233 104.098L235.897 112.442L245 115.098L235.897 117.753L233 126.098L230.103 117.753L221 115.098L230.103 112.442Z" fill="#1276FF"/>
<path d="M164.828 84.5862L167 77L169.172 84.5862L176 87L169.172 89.4138L167 97L164.828 89.4138L158 87L164.828 84.5862Z" fill="#1276FF"/>
<path d="M277.84 131.648V223.424H259.879V163.901L234.05 206.511H231.953L206.124 164.032V223.424H188.031V131.648H206.649L233.001 175.045L259.223 131.648H277.84Z" fill="#1276FF"/>
<path d="M164.108 175.832C172.15 180.464 176.17 187.457 176.17 196.809C176.17 204.588 173.417 210.969 167.91 215.951C162.404 220.933 155.63 223.424 147.589 223.424H108.649V131.648H144.835C152.702 131.648 159.301 134.096 164.633 138.991C170.052 143.798 172.761 149.96 172.761 157.477C172.761 165.081 169.877 171.199 164.108 175.832ZM144.835 148.561H126.742V168.752H144.835C147.632 168.752 149.949 167.791 151.784 165.868C153.707 163.945 154.668 161.541 154.668 158.657C154.668 155.772 153.751 153.369 151.915 151.446C150.08 149.523 147.72 148.561 144.835 148.561ZM147.589 206.511C150.648 206.511 153.183 205.506 155.193 203.496C157.203 201.398 158.208 198.776 158.208 195.629C158.208 192.57 157.203 190.035 155.193 188.025C153.183 185.927 150.648 184.878 147.589 184.878H126.742V206.511H147.589Z" fill="#1276FF"/>
<path d="M118.103 106.103L121 97L123.897 106.103L133 109L123.897 111.897L121 121L118.103 111.897L109 109L118.103 106.103Z" fill="#1276FF"/>
<path fillRule="evenodd" clipRule="evenodd" d="M285.689 118.674C285.161 117.452 284.612 116.235 284.042 115.021C254.219 51.4967 178.545 24.1767 115.021 54C51.4967 83.8234 24.1766 159.497 54 223.021C83.8233 286.545 159.497 313.865 223.021 284.042C224.236 283.472 225.437 282.885 226.625 282.281C167.809 307.626 99.0797 281.853 71.6643 223.458C43.6956 163.884 69.3167 92.9163 128.891 64.9476C187.285 37.5328 256.625 61.6062 285.689 118.674Z" fill="#1276FF"/>
<path d="M622.916 176.613H608.101V203.883C608.101 206.156 608.669 207.816 609.805 208.865C610.941 209.914 612.602 210.526 614.787 210.701C616.972 210.788 619.682 210.745 622.916 210.57V225.909C611.291 227.22 603.075 226.128 598.268 222.632C593.548 219.135 591.188 212.886 591.188 203.883V176.613H579.781V160.355H591.188V147.113L608.101 142V160.355H622.916V176.613Z" fill="white"/>
<path d="M553.807 171.586C555.38 167.391 557.958 164.244 561.542 162.147C565.213 160.049 569.277 159 573.735 159V177.88C568.578 177.268 563.946 178.317 559.838 181.026C555.817 183.736 553.807 188.237 553.807 194.53V225.865H536.894V160.311H553.807V171.586Z" fill="white"/>
<path d="M504.644 158.835H521.557V224.39H504.644V216.654C499.575 223.035 492.451 226.225 483.273 226.225C474.533 226.225 467.016 222.904 460.723 216.261C454.517 209.531 451.414 201.314 451.414 191.612C451.414 181.91 454.517 173.738 460.723 167.095C467.016 160.365 474.533 157 483.273 157C492.451 157 499.575 160.19 504.644 166.571V158.835ZM473.44 204.985C476.849 208.394 481.176 210.099 486.42 210.099C491.664 210.099 495.991 208.394 499.4 204.985C502.896 201.489 504.644 197.032 504.644 191.612C504.644 186.193 502.896 181.779 499.4 178.37C495.991 174.874 491.664 173.126 486.42 173.126C481.176 173.126 476.849 174.874 473.44 178.37C470.031 181.779 468.327 186.193 468.327 191.612C468.327 197.032 470.031 201.489 473.44 204.985Z" fill="white"/>
<path d="M444.947 176.613H430.132V203.883C430.132 206.156 430.7 207.816 431.836 208.865C432.973 209.914 434.633 210.526 436.818 210.701C439.004 210.788 441.713 210.745 444.947 210.57V225.909C433.322 227.22 425.106 226.128 420.299 222.632C415.579 219.135 413.219 212.886 413.219 203.883V176.613H401.812V160.355H413.219V147.113L430.132 142V160.355H444.947V176.613Z" fill="white"/>
<path d="M365.055 226.447C355.965 226.447 348.317 224.437 342.111 220.416C335.905 216.308 331.535 210.758 329 203.765L344.471 194.719C348.054 204.071 355.091 208.747 365.579 208.747C370.649 208.747 374.363 207.829 376.723 205.994C379.083 204.158 380.263 201.842 380.263 199.045C380.263 195.811 378.821 193.32 375.937 191.572C373.052 189.737 367.895 187.77 360.466 185.672C356.358 184.448 352.862 183.225 349.977 182.001C347.18 180.777 344.34 179.16 341.455 177.15C338.658 175.052 336.517 172.43 335.031 169.284C333.545 166.137 332.802 162.466 332.802 158.271C332.802 149.967 335.73 143.368 341.586 138.473C347.53 133.491 354.654 131 362.957 131C370.387 131 376.898 132.836 382.492 136.507C388.174 140.09 392.588 145.116 395.734 151.584L380.526 160.368C376.855 152.502 370.998 148.569 362.957 148.569C359.199 148.569 356.227 149.443 354.042 151.191C351.944 152.851 350.895 155.037 350.895 157.746C350.895 160.63 352.075 162.99 354.435 164.826C356.882 166.574 361.515 168.497 368.332 170.595C371.129 171.469 373.227 172.168 374.626 172.692C376.112 173.129 378.078 173.872 380.526 174.921C383.06 175.883 384.983 176.8 386.294 177.675C387.693 178.549 389.266 179.729 391.014 181.214C392.762 182.7 394.073 184.23 394.947 185.803C395.909 187.377 396.696 189.299 397.307 191.572C398.007 193.757 398.356 196.161 398.356 198.783C398.356 207.261 395.253 213.992 389.048 218.974C382.929 223.956 374.932 226.447 365.055 226.447Z" fill="white"/>
</svg>
